<svg width="258" height="269" viewBox="0 0 258 269" fill="none" xmlns="http://www.w3.org/2000/svg">
<path d="M30.3633 0.175171H104.604C130.755 0.175171 107.412 23.9974 128.473 23.9974H252.033C253.429 23.9974 254.768 24.551 255.756 25.5365C256.743 26.522 257.298 27.8586 257.298 29.2523V47.8196C257.298 49.2133 256.743 50.5499 255.756 51.5354C254.768 52.5209 253.429 53.0745 252.033 53.0745H5.26531C3.86886 53.0745 2.52961 52.5209 1.54217 51.5354C0.554736 50.5499 0 49.2133 0 47.8196L0 23.2967C0 21.9031 0.554736 20.5664 1.54217 19.581C2.52961 18.5955 3.86886 18.0418 5.26531 18.0418H16.3224C27.5551 18.0418 13.1633 0.175171 30.3633 0.175171Z" fill="url(#paint0_linear_98_70)"/>
<path d="M257.298 35.7333C257.298 34.3396 256.743 33.003 255.756 32.0176C254.768 31.0321 253.429 30.4784 252.033 30.4784H188.849C182.004 30.4784 173.58 39.9373 164.804 39.9373H5.26533C3.89953 39.9827 2.60494 40.5564 1.65515 41.537C0.705358 42.5176 0.174779 43.8283 0.175538 45.1922V53.9503C0.175538 55.344 0.730274 56.6806 1.71771 57.6661C2.70515 58.6516 4.0444 59.2052 5.44084 59.2052H252.208C253.605 59.2052 254.944 58.6516 255.931 57.6661C256.919 56.6806 257.473 55.344 257.473 53.9503V35.7333H257.298Z" fill="url(#paint1_linear_98_70)"/>
<path d="M160.065 24.6981H92.1429C65.9919 24.6981 89.5102 48.5203 68.449 48.5203H5.26533C3.89953 48.5657 2.60494 49.1394 1.65515 50.12C0.705358 51.1006 0.174779 52.4113 0.175538 53.7752V72.3425C0.175538 73.7362 0.730274 75.0728 1.71771 76.0583C2.70515 77.0438 4.0444 77.5974 5.44084 77.5974H252.208C253.605 77.5974 254.944 77.0438 255.931 76.0583C256.919 75.0728 257.473 73.7362 257.473 72.3425V53.7752C257.473 52.3815 256.919 51.0449 255.931 50.0594C254.944 49.0739 253.605 48.5203 252.208 48.5203H185.865C164.453 48.5203 185.865 24.6981 160.241 24.6981H160.065Z" fill="url(#paint2_linear_98_70)"/>
<path d="M0 58.3294C0 56.9357 0.554736 55.5991 1.54217 54.6136C2.52961 53.6282 3.86886 53.0745 5.26531 53.0745H68.449C75.1184 53.0745 83.7184 62.7085 92.3184 62.7085H252.033C253.429 62.7085 254.768 63.2621 255.756 64.2476C256.743 65.2331 257.298 66.5697 257.298 67.9634V76.7216C257.298 78.1153 256.743 79.4519 255.756 80.4374C254.768 81.4228 253.429 81.9765 252.033 81.9765H5.26531C3.86886 81.9765 2.52961 81.4228 1.54217 80.4374C0.554736 79.4519 0 78.1153 0 76.7216L0 58.3294Z" fill="url(#paint3_linear_98_70)"/>
<path d="M226.759 46.9438H152.694C126.367 46.9438 149.886 68.664 128.649 68.664H5.26531C3.86886 68.664 2.52961 69.2177 1.54217 70.2032C0.554736 71.1887 0 72.5253 0 73.9189L0 92.4863C0 93.88 0.554736 95.2166 1.54217 96.202C2.52961 97.1875 3.86886 97.7412 5.26531 97.7412H252.033C253.429 97.7412 254.768 97.1875 255.756 96.202C256.743 95.2166 257.298 93.88 257.298 92.4863V67.9634C257.298 66.5697 256.743 65.2331 255.756 64.2476C254.768 63.2621 253.429 62.7085 252.033 62.7085H240.976C229.743 62.7085 244.135 46.9438 226.935 46.9438H226.759Z" fill="url(#paint4_linear_98_70)"/>
<path d="M0 77.7726C0 76.3789 0.554736 75.0423 1.54217 74.0568C2.52961 73.0713 3.86886 72.5177 5.26531 72.5177H118.645C125.49 72.5177 134.09 87.2314 142.69 87.2314H252.033C253.429 87.2314 254.768 87.785 255.756 88.7705C256.743 89.756 257.298 91.0926 257.298 92.4863V250.834C257.298 252.228 256.743 253.564 255.756 254.55C254.768 255.535 253.429 256.089 252.033 256.089H5.26531C3.86886 256.089 2.52961 255.535 1.54217 254.55C0.554736 253.564 0 252.228 0 250.834L0 77.7726Z" fill="url(#paint5_linear_98_70)"/>
<path fill-rule="evenodd" clip-rule="evenodd" d="M105.657 0.175163C129.702 0.875817 108.465 23.2967 127.596 23.9974H252.033C253.429 23.9974 254.768 24.551 255.756 25.5365C256.743 26.522 257.298 27.8586 257.298 29.2523V251.184C257.211 252.487 256.642 253.71 255.701 254.617C254.761 255.524 253.515 256.048 252.208 256.089H4.9143C3.63806 256.006 2.43552 255.463 1.53119 254.561C0.626873 253.658 0.0826037 252.458 1.30435e-05 251.184V22.9464C-0.00296273 21.6113 0.503334 20.3252 1.41608 19.3492C2.32882 18.3732 3.57957 17.7805 4.9143 17.6915H16.3225C27.3796 17.6915 13.5143 0.52549 29.6612 0.175163L30.3633 0H105.657V0.175163ZM5.26532 74.2693C4.33435 74.2693 3.44152 74.6384 2.78323 75.2954C2.12494 75.9523 1.75512 76.8434 1.75512 77.7725V250.834C1.75512 252.761 3.33471 254.337 5.26532 254.337H252.033C252.964 254.337 253.856 253.968 254.515 253.311C255.173 252.654 255.543 251.763 255.543 250.834V92.4863C255.543 90.5595 253.788 88.983 252.033 88.983H142.69C140.057 88.983 137.424 87.932 135.318 86.3556C133.037 84.9542 130.755 83.0274 128.825 81.1006L122.857 76.5464C121.102 75.1451 119.698 74.4444 118.469 74.4444H5.26532V74.2693ZM152.694 48.6954C146.2 48.6954 143.392 50.0967 142.163 51.498C140.759 53.0745 140.584 55.0013 140.408 57.8039V62.0078C140.408 63.4091 140.057 64.8105 139.18 66.2118C137.425 69.0144 134.265 70.4157 128.649 70.4157H5.26532C4.33435 70.4157 3.44152 70.7848 2.78323 71.4418C2.12494 72.0988 1.75512 72.9898 1.75512 73.9189C2.62013 73.1103 3.73322 72.6166 4.9143 72.5176H118.996C125.665 73.0431 134.09 87.2314 142.69 87.2314H252.033C253.336 87.2487 254.587 87.748 255.543 88.6327V67.7882C255.543 66.8591 255.173 65.968 254.515 65.311C253.856 64.6541 252.964 64.285 252.033 64.285H240.976C239.22 64.285 237.992 64.1098 236.939 63.4091C235.71 62.7085 235.184 61.6575 234.657 60.7817L234.306 57.6287V54.8261C234.306 52.8993 234.306 51.498 233.429 50.6222C232.727 49.7464 230.971 48.8706 226.759 48.8706H152.694V48.6954ZM5.26532 54.8261C4.33435 54.8261 3.44152 55.1952 2.78323 55.8522C2.12494 56.5092 1.75512 57.4003 1.75512 58.3294V70.2405C2.71101 69.3558 3.96178 68.8565 5.26532 68.8392H128.649C134.792 68.8392 137.249 67.0876 138.127 64.6353H92.4939C87.5796 64.6353 82.8408 61.8327 78.8041 59.5556L73.0123 56.2274C71.2572 55.3516 69.6776 54.8261 68.449 54.8261H5.26532ZM235.184 50.2719C237.641 54.8261 233.253 62.183 240.449 62.5333H252.208C253.451 62.5926 254.632 63.0891 255.543 63.9346V53.7752C255.543 52.846 255.173 51.955 254.515 51.298C253.856 50.641 252.964 50.2719 252.033 50.2719H235.184ZM92.3184 26.4497C86 26.4497 83.1918 27.851 81.7878 29.4275C80.5592 31.1791 80.2082 33.6314 80.2082 36.6091V41.1634C80.0327 42.7399 79.6816 44.3163 78.9796 45.7176C77.2245 48.6954 74.0653 50.2719 68.449 50.2719H5.26532C4.36511 50.3169 3.51673 50.7057 2.89593 51.3579C2.27513 52.0101 1.9295 52.8756 1.93063 53.7752V54.4758C2.79564 53.6672 3.90873 53.1734 5.08981 53.0745H68.8C75.4694 53.4248 83.8939 62.7085 92.3184 62.7085H138.653C139.531 56.4026 135.845 47.4693 151.465 46.9438H175.686C174.618 45.1942 173.791 43.3088 173.229 41.3386L172.702 36.7843C172.351 33.8065 172 31.3542 170.596 29.6026C169.016 27.851 166.208 26.4497 160.065 26.4497H92.1429H92.3184ZM5.26532 41.6889C4.36511 41.7339 3.51673 42.1227 2.89593 42.7749C2.27513 43.4271 1.9295 44.2926 1.93063 45.1922V49.9216C2.88653 49.0369 4.13729 48.5376 5.44083 48.5203H69.3265C75.9959 48.3451 77.751 45.3673 78.2776 41.6889H5.26532ZM189.024 32.2301C187.62 32.2301 186.216 32.2301 184.286 33.1059L178.669 36.2588C176.212 37.6601 175.51 38.7111 175.159 39.2366C175.51 42.0392 176.212 44.8418 178.318 46.9438H227.812C230.796 46.9438 232.727 47.6444 233.955 48.6954H252.208C253.086 48.6954 254.49 48.8706 255.718 49.7464V35.7333C255.718 34.8042 255.349 33.9131 254.69 33.2561C254.032 32.5992 253.139 32.2301 252.208 32.2301H189.024ZM30.3633 1.9268C26.3265 1.9268 24.747 2.97778 23.8694 4.02876C22.9918 5.07974 22.8163 6.83137 22.8163 8.93333V12.0863C22.8163 13.3124 22.8163 14.3634 22.4653 15.5895C22.1051 16.7367 21.3618 17.7259 20.3592 18.3922C19.3061 19.268 17.9021 19.4431 16.3225 19.4431H5.26532C4.33435 19.4431 3.44152 19.8122 2.78323 20.4692C2.12494 21.1262 1.75512 22.0173 1.75512 22.9464V40.9882C2.73679 40.167 3.98476 39.7311 5.26532 39.7621H78.2776C78.6286 33.1059 76.698 24.8732 91.0898 24.5229H121.98C120.301 23.8029 118.89 22.5782 117.943 21.0196C117.241 19.6183 116.89 18.0418 116.714 16.4654V12.0863C116.714 9.1085 116.363 6.83137 114.959 5.07974C113.731 3.3281 110.922 1.9268 104.429 1.9268H30.5388H30.3633ZM168.139 25.749C173.404 27.851 174.106 32.2301 174.633 36.7843C178.304 33.029 183.25 30.7797 188.498 30.4784H252.208C253.429 30.4891 254.607 30.9225 255.543 31.7046V29.2523C255.543 28.3232 255.173 27.4321 254.515 26.7751C253.856 26.1181 252.964 25.749 252.033 25.749H168.139Z" fill="#C0A65E"/>
<path d="M0 247.506H257.298M0 239.448H257.298M0 231.741H257.298" stroke="url(#paint6_linear_98_70)" stroke-width="0.8"/>
<path d="M216.404 163.778C224.302 163.778 233.078 166.23 233.078 179.543V258.892C233.078 263.095 230.971 267.299 225.18 267.299H180.776C179.371 266.599 175.51 263.796 170.771 255.914H180.776V262.395V226.486C180.776 221.407 178.669 219.305 173.404 219.305H83.8939C78.6286 219.305 76.5225 221.407 76.5225 226.486V262.395V255.914H86.5266C81.7878 263.621 77.751 266.599 76.5225 267.299H32.1184C26.3266 267.299 24.0449 263.095 24.0449 258.892V179.543C24.0449 166.23 32.8204 163.778 40.8939 163.778H216.404Z" fill="#8FCBE9" fill-opacity="0.8"/>
<path d="M216.404 163.778C224.302 163.778 233.078 166.23 233.078 179.543V258.892C233.078 263.095 230.971 267.299 225.18 267.299H180.776C179.371 266.599 175.51 263.796 170.771 255.914H180.776V262.395V226.486C180.776 221.407 178.669 219.305 173.404 219.305H83.8939C78.6286 219.305 76.5225 221.407 76.5225 226.486V262.395V255.914H86.5266C81.7878 263.621 77.751 266.599 76.5225 267.299H32.1184C26.3266 267.299 24.0449 263.095 24.0449 258.892V179.543C24.0449 166.23 32.8204 163.778 40.8939 163.778H216.404Z" fill="url(#paint7_linear_98_70)"/>
<path d="M216.404 163.778C224.302 163.778 233.078 166.23 233.078 179.543V258.892C233.078 263.095 230.971 267.299 225.18 267.299H180.776C179.371 266.599 175.51 263.796 170.771 255.914H180.776V262.395V226.486C180.776 221.407 178.669 219.305 173.404 219.305H83.8939C78.6286 219.305 76.5225 221.407 76.5225 226.486V262.395V255.914H86.5266C81.7878 263.621 77.751 266.599 76.5225 267.299H32.1184C26.3266 267.299 24.0449 263.095 24.0449 258.892V179.543C24.0449 166.23 32.8204 163.778 40.8939 163.778H216.404Z" fill="url(#paint8_linear_98_70)"/>
<path d="M216.404 163.778C224.302 163.778 233.078 166.23 233.078 179.543V258.892C233.078 263.095 230.971 267.299 225.18 267.299H180.776C179.371 266.599 175.51 263.796 170.771 255.914H180.776V262.395V226.486C180.776 221.407 178.669 219.305 173.404 219.305H83.8939C78.6286 219.305 76.5225 221.407 76.5225 226.486V262.395V255.914H86.5266C81.7878 263.621 77.751 266.599 76.5225 267.299H32.1184C26.3266 267.299 24.0449 263.095 24.0449 258.892V179.543C24.0449 166.23 32.8204 163.778 40.8939 163.778H216.404Z" fill="url(#paint9_linear_98_70)"/>
<path d="M216.404 163.778C224.302 163.778 233.078 166.23 233.078 179.543V258.892C233.078 263.095 230.971 267.299 225.18 267.299H180.776C179.371 266.599 175.51 263.796 170.771 255.914H180.776V262.395V226.486C180.776 221.407 178.669 219.305 173.404 219.305H83.8939C78.6286 219.305 76.5225 221.407 76.5225 226.486V262.395V255.914H86.5266C81.7878 263.621 77.751 266.599 76.5225 267.299H32.1184C26.3266 267.299 24.0449 263.095 24.0449 258.892V179.543C24.0449 166.23 32.8204 163.778 40.8939 163.778H216.404Z" fill="url(#paint10_linear_98_70)"/>
<path d="M232.2 179.542C232.2 173.061 230.094 169.558 227.286 167.281C224.228 165.418 220.685 164.503 217.106 164.654H40.8939C37.0327 164.654 32.996 165.354 30.0123 167.456C27.0286 169.558 24.9225 173.061 24.9225 179.718V258.891C24.9225 260.643 25.449 262.745 26.6776 264.146C27.7306 265.373 29.4858 266.424 31.9429 266.424H76.347C77.598 265.668 78.7231 264.723 79.6817 263.621C81.6414 261.508 83.4039 259.222 84.947 256.79H79.6817L77.4 262.395H75.6449V226.486C75.6449 223.859 76.1715 221.757 77.5756 220.356C78.9796 218.954 81.0858 218.429 83.8939 218.429H173.404C176.037 218.429 178.143 218.954 179.722 220.356C181.127 221.757 181.478 223.859 181.478 226.486V262.395H179.722L177.616 256.79H172.351C174.282 259.942 176.212 262.044 177.616 263.796C178.588 264.836 179.712 265.722 180.951 266.424H225.18C227.812 266.424 229.567 265.373 230.62 263.971C231.673 262.745 232.376 260.818 232.376 258.716V179.542H232.2ZM233.955 258.891V259.242C233.955 261.344 233.429 263.446 232.025 265.197C230.62 266.949 228.339 268.175 225.18 268.175H180.425C178.882 267.328 177.512 266.199 176.388 264.847C174.633 263.095 172.351 260.293 170.069 256.439L169.192 255.038H179.722V226.486C179.722 224.034 179.371 222.458 178.318 221.582C177.441 220.706 175.861 220.18 173.404 220.18H83.8939C81.2613 220.18 79.8572 220.706 78.8041 221.582C77.9266 222.458 77.4 224.034 77.4 226.486V255.038H87.9306L87.2286 256.439C85.4303 259.46 83.312 262.278 80.9102 264.847C79.7699 266.136 78.4015 267.205 76.8735 268H32.1184C28.9592 268 26.8531 266.949 25.098 265.197C23.8694 263.446 23.3429 261.344 23.3429 259.242V179.542C23.3429 172.711 25.449 168.507 28.9592 166.055C32.4694 163.603 36.8572 162.902 40.8939 162.902H216.404C220.441 162.902 224.829 163.603 228.163 166.055C231.674 168.507 233.955 172.711 233.955 179.542V258.891Z" fill="#969696" fill-opacity="0.5"/>
<path d="M212.718 168.858C220.265 168.858 228.865 171.135 228.865 184.622V224.384C190.35 198.488 144.711 185.203 98.2857 186.374C74.6744 186.277 51.1646 189.461 28.4326 195.833V184.622C28.4326 171.135 36.8571 168.858 44.5796 168.858H212.718Z" fill="url(#paint11_linear_98_70)" fill-opacity="0.8"/>
<path d="M53.1796 125.767L54.7592 172.361L77.7511 131.898L57.3919 173.937L96.8817 148.714L59.3225 176.39L105.833 172.361L59.6735 179.542L102.849 197.584L58.445 182.52L88.2817 218.429L56.1633 184.622L65.8164 230.165L53.1796 185.323L40.3674 230.34L50.0205 184.622L17.9021 218.429L47.7388 182.52L3.51026 197.584L46.6858 179.542L0.351074 172.536L47.0368 176.39L9.4776 148.714L48.7919 173.937L28.4327 131.898L51.6001 172.361L53.1796 125.767Z" fill="url(#paint12_radial_98_70)"/>
<path d="M46.3347 6.65622H102.498V21.8954H46.3347V6.65622ZM102.849 30.4784H159.012V45.7177H102.849V30.4784ZM167.437 53.0745H223.6V68.4889H167.437V53.2497V53.0745Z" fill="#FCFFFC"/>
<path fill-rule="evenodd" clip-rule="evenodd" d="M223.6 68.4889H167.437V53.0745H223.6V68.4889ZM168.665 67.0876H222.371V54.4758H168.665V67.2628V67.0876ZM159.012 45.7177H102.849V30.4784H159.012V45.7177ZM104.078 44.4915H157.784V31.7046H104.078V44.4915ZM102.498 21.8954H46.3347V6.65622H102.498V21.8954ZM47.5633 20.6693H101.269V7.88236H47.5633V20.6693Z" fill="#BCB28D"/>
<path d="M35.9796 6.65622H51.249V21.8954H35.9796V6.65622Z" fill="url(#paint13_linear_98_70)"/>
<path d="M51.249 6.65622V21.8954H35.9796V6.65622H51.249ZM37.2082 20.6693H50.0204V7.88236H37.2082V20.6693Z" fill="url(#paint14_linear_98_70)"/>
<path d="M92.3184 30.4784H107.588V45.7176H92.3184V30.4784Z" fill="url(#paint15_linear_98_70)"/>
<path d="M107.588 30.4784V45.7176H92.3184V30.4784H107.588ZM93.5469 44.4915H106.359V31.7046H93.5469V44.4915Z" fill="url(#paint16_linear_98_70)"/>
<path d="M157.082 53.0745H172.351V68.4889H157.082V53.2497V53.0745Z" fill="url(#paint17_linear_98_70)"/>
<path d="M172.351 53.0745V68.4889H157.082V53.2497H172.351V53.0745ZM158.31 67.0876H171.122V54.4758H158.31V67.2628V67.0876Z" fill="url(#paint18_linear_98_70)"/>
<defs>
<linearGradient id="paint0_linear_98_70" x1="175.686" y1="-11.7359" x2="175.686" y2="53.0745" gradientUnits="userSpaceOnUse">
<stop stop-color="#FFECB2"/>
<stop offset="1" stop-color="#E4C154"/>
</linearGradient>
<linearGradient id="paint1_linear_98_70" x1="128.649" y1="25.2235" x2="128.649" y2="59.2052" gradientUnits="userSpaceOnUse">
<stop stop-color="#FFEBAC"/>
<stop offset="1" stop-color="#E9C248"/>
</linearGradient>
<linearGradient id="paint2_linear_98_70" x1="128.649" y1="24.6981" x2="128.649" y2="77.5974" gradientUnits="userSpaceOnUse">
<stop stop-color="#FFECB2"/>
<stop offset="1" stop-color="#E4C154"/>
</linearGradient>
<linearGradient id="paint3_linear_98_70" x1="128.649" y1="47.9948" x2="128.649" y2="81.9765" gradientUnits="userSpaceOnUse">
<stop stop-color="#FFEBAC"/>
<stop offset="1" stop-color="#E9C248"/>
</linearGradient>
<linearGradient id="paint4_linear_98_70" x1="81.6122" y1="32.9307" x2="81.6122" y2="97.7412" gradientUnits="userSpaceOnUse">
<stop stop-color="#FFECB2"/>
<stop offset="1" stop-color="#E4C154"/>
</linearGradient>
<linearGradient id="paint5_linear_98_70" x1="166.559" y1="78.6484" x2="166.559" y2="262.044" gradientUnits="userSpaceOnUse">
<stop stop-color="#FFEDB7"/>
<stop offset="1" stop-color="#E4C154"/>
</linearGradient>
<linearGradient id="paint6_linear_98_70" x1="0" y1="232.617" x2="257.298" y2="232.617" gradientUnits="userSpaceOnUse">
<stop stop-color="#BE9F3D"/>
<stop offset="0.6" stop-color="#FFE289"/>
</linearGradient>
<linearGradient id="paint7_linear_98_70" x1="128.649" y1="163.778" x2="128.649" y2="168.507" gradientUnits="userSpaceOnUse">
<stop stop-color="white" stop-opacity="0.8"/>
<stop offset="1" stop-color="white" stop-opacity="0"/>
</linearGradient>
<linearGradient id="paint8_linear_98_70" x1="24.0449" y1="215.451" x2="28.4327" y2="215.451" gradientUnits="userSpaceOnUse">
<stop stop-color="white" stop-opacity="0.8"/>
<stop offset="1" stop-color="white" stop-opacity="0"/>
</linearGradient>
<linearGradient id="paint9_linear_98_70" x1="128.649" y1="267.299" x2="128.649" y2="264.146" gradientUnits="userSpaceOnUse">
<stop stop-color="#9DEDFF" stop-opacity="0.9"/>
<stop offset="1" stop-color="white" stop-opacity="0"/>
</linearGradient>
<linearGradient id="paint10_linear_98_70" x1="233.078" y1="215.451" x2="229.041" y2="215.451" gradientUnits="userSpaceOnUse">
<stop stop-color="white" stop-opacity="0.8"/>
<stop offset="1" stop-color="white" stop-opacity="0"/>
</linearGradient>
<linearGradient id="paint11_linear_98_70" x1="28.4326" y1="196.708" x2="228.865" y2="196.708" gradientUnits="userSpaceOnUse">
<stop stop-color="white" stop-opacity="0.8"/>
<stop offset="1" stop-color="#DBF4FF" stop-opacity="0.1"/>
</linearGradient>
<radialGradient id="paint12_radial_98_70" cx="0" cy="0" r="1" gradientUnits="userSpaceOnUse" gradientTransform="translate(53.1796 178.842) rotate(90) scale(52.549 52.6531)">
<stop stop-color="white"/>
<stop offset="0.8" stop-color="white" stop-opacity="0.2"/>
</radialGradient>
<linearGradient id="paint13_linear_98_70" x1="43.5266" y1="6.65622" x2="43.5266" y2="21.8954" gradientUnits="userSpaceOnUse">
<stop stop-color="#B9DF84"/>
<stop offset="1" stop-color="#5B9C00"/>
</linearGradient>
<linearGradient id="paint14_linear_98_70" x1="35.9796" y1="6.65622" x2="51.2188" y2="21.9256" gradientUnits="userSpaceOnUse">
<stop stop-color="#84B956"/>
<stop offset="1" stop-color="#3B5327"/>
</linearGradient>
<linearGradient id="paint15_linear_98_70" x1="100.041" y1="30.4784" x2="100.041" y2="45.7176" gradientUnits="userSpaceOnUse">
<stop stop-color="#FFC286"/>
<stop offset="1" stop-color="#DA6600"/>
</linearGradient>
<linearGradient id="paint16_linear_98_70" x1="92.3184" y1="30.4784" x2="107.558" y2="45.7478" gradientUnits="userSpaceOnUse">
<stop stop-color="#D56520"/>
<stop offset="1" stop-color="#722C00"/>
</linearGradient>
<linearGradient id="paint17_linear_98_70" x1="164.629" y1="53.0745" x2="164.629" y2="68.3137" gradientUnits="userSpaceOnUse">
<stop stop-color="#B9E2FF"/>
<stop offset="1" stop-color="#006D9C"/>
</linearGradient>
<linearGradient id="paint18_linear_98_70" x1="157.082" y1="53.0745" x2="172.321" y2="68.3439" gradientUnits="userSpaceOnUse">
<stop stop-color="#70C5E4"/>
<stop offset="1" stop-color="#1A5E77"/>
</linearGradient>
</defs>
</svg>
