<svg width="161" height="161" viewBox="0 0 161 161" fill="none" xmlns="http://www.w3.org/2000/svg">
<path d="M156.643 79.948C156.606 89.9823 154.592 99.911 150.718 109.167C146.843 118.423 141.184 126.826 134.062 133.895C126.94 140.963 118.495 146.56 109.211 150.366C99.9257 154.171 89.9823 156.11 79.948 156.073C69.9137 156.11 59.9702 154.171 50.6853 150.366C41.4005 146.56 32.9561 140.963 25.8342 133.895C18.7124 126.826 13.0526 118.423 9.17809 109.167C5.30354 99.911 3.29009 89.9823 3.25269 79.948C3.33576 59.6877 11.4619 40.2899 25.8443 26.0199C40.2267 11.7499 59.6877 3.77609 79.948 3.85192C100.208 3.77609 119.669 11.7499 134.052 26.0199C148.434 40.2899 156.56 59.6877 156.643 79.948Z" fill="url(#paint0_linear_98_43)"/>
<path d="M154.646 80.1763C154.646 65.4476 150.278 51.0496 142.096 38.8031C133.913 26.5566 122.282 17.0117 108.675 11.3752C95.067 5.73879 80.0936 4.26404 65.6479 7.13747C51.2022 10.0109 37.933 17.1035 27.5182 27.5182C17.1034 37.933 10.0108 51.2023 7.13741 65.648C4.26398 80.0937 5.73873 95.0671 11.3752 108.675C17.0116 122.282 26.5566 133.913 38.8031 142.096C51.0496 150.278 65.4475 154.646 80.1762 154.646V160.353L78.0934 160.295C57.5577 159.761 38.0104 151.365 23.4845 136.839C8.95867 122.314 0.56257 102.766 0.0285325 82.2306L0 80.1763C0 58.9122 8.44711 38.5191 23.4831 23.4831C38.519 8.44718 58.9122 6.10352e-05 80.1762 6.10352e-05L82.2306 6.10352e-05C103.137 0.535906 123.006 9.21899 137.6 24.1973C152.195 39.1755 160.359 59.2634 160.352 80.1763V82.2306C159.809 103.132 151.123 122.994 136.146 137.582C121.168 152.17 101.084 160.331 80.1762 160.324V154.618C99.9268 154.618 118.869 146.772 132.834 132.806C146.8 118.84 154.646 99.8984 154.646 80.1478V80.1763Z" fill="url(#paint1_linear_98_43)"/>
<path d="M82.2306 6.10352e-05C103.137 0.535906 123.006 9.21899 137.6 24.1973C152.195 39.1755 160.359 59.2634 160.352 80.1763V82.2306C159.809 103.132 151.123 122.994 136.146 137.582C121.168 152.17 101.084 160.331 80.1762 160.324H78.1219C57.5716 159.797 38.009 151.396 23.4756 136.857C8.94221 122.318 0.548494 102.753 0.0285325 82.2021L0 80.1763C0 58.9122 8.44711 38.5191 23.4831 23.4831C38.519 8.44718 58.9122 6.10352e-05 80.1762 6.10352e-05L82.2306 6.10352e-05ZM154.646 80.1763C154.646 70.3968 152.72 60.713 148.977 51.678C145.235 42.6429 139.749 34.4334 132.834 27.5182C125.919 20.6031 117.71 15.1177 108.675 11.3752C99.6395 7.63277 89.9557 5.70655 80.1762 5.70655C70.3967 5.70655 60.713 7.63277 51.6779 11.3752C42.6428 15.1177 34.4333 20.6031 27.5182 27.5182C20.603 34.4334 15.1176 42.6429 11.3752 51.678C7.63271 60.713 5.70649 70.3968 5.70649 80.1763C5.70649 99.9269 13.5524 118.869 27.5182 132.834C41.484 146.8 60.4256 154.646 80.1762 154.646C99.9268 154.646 118.869 146.8 132.834 132.834C146.8 118.869 154.646 99.9269 154.646 80.1763ZM156.073 82.1165C155.57 101.789 147.446 120.498 133.414 134.296C119.382 148.094 100.54 155.902 80.861 156.073V158.926C101.262 158.733 120.792 150.631 135.338 136.324C149.883 122.018 158.309 102.626 158.84 82.2306L158.869 80.2048C158.883 59.6701 150.876 39.9419 136.555 25.2258C122.233 10.5097 102.73 1.96981 82.202 1.42668H80.1477C59.267 1.43425 39.244 9.7344 24.4818 24.502C9.71951 39.2696 1.42662 59.2955 1.42662 80.1763V82.1736L1.51222 84.1708C2.52618 103.982 10.9795 122.68 25.1824 136.529C39.3854 150.378 58.2916 158.356 78.1219 158.869L79.4629 158.897V156.044C64.4819 155.909 49.8761 151.343 37.4854 142.922C25.0947 134.5 15.4735 122.6 9.83396 108.721C4.19441 94.8411 2.78876 79.6029 5.79411 64.9258C8.79947 50.2488 16.0814 36.7894 26.7224 26.2435C37.3635 15.6976 50.8877 8.53692 65.5911 5.66351C80.2946 2.79011 95.5195 4.33256 109.348 10.0966C123.176 15.8605 134.99 25.5882 143.299 38.054C151.609 50.5199 156.043 65.1662 156.044 80.1478V82.145L156.073 82.1165Z" fill="url(#paint2_linear_98_43)"/>
<path d="M109.08 35.2376C109.561 34.7584 110.212 34.4894 110.891 34.4894C111.57 34.4894 112.222 34.7584 112.703 35.2376L125.115 47.6492C125.594 48.1305 125.863 48.7819 125.863 49.461C125.863 50.1401 125.594 50.7916 125.115 51.2728L96.2114 80.1762L125.115 109.08C125.594 109.561 125.863 110.212 125.863 110.891C125.863 111.571 125.594 112.222 125.115 112.703L112.703 125.115C112.222 125.594 111.57 125.863 110.891 125.863C110.212 125.863 109.561 125.594 109.08 125.115L80.1762 96.2115L51.2728 125.115C50.7915 125.594 50.1401 125.863 49.461 125.863C48.7819 125.863 48.1304 125.594 47.6492 125.115L35.2375 112.703C34.7584 112.222 34.4894 111.571 34.4894 110.891C34.4894 110.212 34.7584 109.561 35.2375 109.08L64.1409 80.1762L35.2375 51.2728C34.7584 50.7916 34.4894 50.1401 34.4894 49.461C34.4894 48.7819 34.7584 48.1305 35.2375 47.6492L47.6492 35.2376C48.1304 34.7584 48.7819 34.4894 49.461 34.4894C50.1401 34.4894 50.7915 34.7584 51.2728 35.2376L80.1762 64.141L109.08 35.2376Z" fill="url(#paint3_linear_98_43)"/>
<path d="M109.08 35.2376C109.561 34.7584 110.212 34.4894 110.891 34.4894C111.57 34.4894 112.222 34.7584 112.703 35.2376L125.115 47.6492C125.594 48.1305 125.863 48.7819 125.863 49.461C125.863 50.1401 125.594 50.7916 125.115 51.2728L96.2114 80.1762L125.115 109.08C125.594 109.561 125.863 110.212 125.863 110.891C125.863 111.571 125.594 112.222 125.115 112.703L112.703 125.115L112.503 125.286C112.045 125.662 111.47 125.867 110.877 125.867C110.284 125.867 109.71 125.662 109.251 125.286L109.08 125.115L80.1762 96.2115L51.2728 125.115L51.073 125.286C50.6142 125.662 50.0396 125.867 49.4467 125.867C48.8538 125.867 48.2792 125.662 47.8203 125.286L47.6492 125.115L35.2375 112.703C34.7881 112.257 34.5191 111.661 34.4823 111.03C34.4454 110.398 34.6432 109.774 35.0378 109.279L35.2375 109.08L64.1409 80.1762L35.2375 51.2728C34.7881 50.8271 34.5191 50.231 34.4823 49.5991C34.4454 48.9672 34.6432 48.3439 35.0378 47.8489L35.2375 47.6492L47.6492 35.2376C48.1304 34.7584 48.7819 34.4894 49.461 34.4894C50.1401 34.4894 50.7915 34.7584 51.2728 35.2376L80.1762 64.141L109.08 35.2376ZM111.961 35.9509C111.673 35.6652 111.283 35.5048 110.877 35.5048C110.471 35.5048 110.081 35.6652 109.793 35.9509L80.8895 64.8543L80.1762 65.5676L79.4343 64.8543L50.5309 35.9509C50.2424 35.6652 49.8528 35.5048 49.4467 35.5048C49.0406 35.5048 48.651 35.6652 48.3625 35.9509L35.9508 48.3625C35.6651 48.651 35.5048 49.0407 35.5048 49.4468C35.5048 49.8528 35.6651 50.2425 35.9508 50.531L64.8542 79.4344L65.5675 80.1762L64.8542 80.8895L35.9508 109.793C35.6651 110.081 35.5048 110.471 35.5048 110.877C35.5048 111.283 35.6651 111.673 35.9508 111.961L48.3625 124.373C48.9616 124.972 49.9317 124.972 50.5309 124.373L79.4343 95.4696L80.1762 94.7563L80.8895 95.4696L109.793 124.402C110.392 125.001 111.362 125.001 111.961 124.402L124.373 111.99C124.659 111.701 124.819 111.312 124.819 110.906C124.819 110.5 124.659 110.11 124.373 109.821L95.4696 80.8895L94.7563 80.1762L95.4696 79.4344L124.401 50.531C124.687 50.2425 124.848 49.8528 124.848 49.4468C124.848 49.0407 124.687 48.651 124.401 48.3625L111.99 35.9509H111.961Z" fill="#D6D6D6"/>
<path d="M79.2062 156.073H81.0323V158.897H79.2062V156.044V156.073Z" fill="#B9B9B9"/>
<path d="M150.908 55.2675C69.7618 54.4971 24.1383 90.9331 11.7838 109.565C-10.015 55.2675 32.584 13.0109 56.0091 7.81802C115.842 -5.47811 143.119 34.4674 150.908 55.2675Z" fill="white" fill-opacity="0.2"/>
<defs>
<linearGradient id="paint0_linear_98_43" x1="30.1303" y1="21.6276" x2="133.931" y2="137.412" gradientUnits="userSpaceOnUse">
<stop stop-color="#A60000"/>
<stop offset="0.52" stop-color="#6D0000"/>
<stop offset="1" stop-color="#C50000"/>
</linearGradient>
<linearGradient id="paint1_linear_98_43" x1="130.479" y1="16.9769" x2="23.3966" y2="131.649" gradientUnits="userSpaceOnUse">
<stop stop-color="#999999"/>
<stop offset="0.5" stop-color="white"/>
<stop offset="1" stop-color="#A0A0A0"/>
</linearGradient>
<linearGradient id="paint2_linear_98_43" x1="80.1762" y1="6.10352e-05" x2="80.1762" y2="160.324" gradientUnits="userSpaceOnUse">
<stop stop-color="#DADADA"/>
<stop offset="0.53" stop-color="#636363"/>
<stop offset="1" stop-color="#D3D3D3"/>
</linearGradient>
<linearGradient id="paint3_linear_98_43" x1="41.3149" y1="41.5718" x2="118.809" y2="119.095" gradientUnits="userSpaceOnUse">
<stop stop-color="#EDEDED"/>
<stop offset="0.61" stop-color="#959595"/>
<stop offset="1" stop-color="#E4E4E4"/>
</linearGradient>
</defs>
</svg>
