<svg width="508" height="397" viewBox="0 0 508 397" fill="none" xmlns="http://www.w3.org/2000/svg">
<path d="M469.58 101.105C485.645 101.105 498.669 114.128 498.669 130.193C498.669 146.258 485.645 159.282 469.58 159.282C453.515 159.282 440.492 146.258 440.492 130.193C440.492 114.128 453.515 101.105 469.58 101.105Z" fill="#EDDEAE"/>
<path d="M292.579 19.2602C308.644 19.2602 321.667 32.2833 321.667 48.3481C321.667 64.4131 308.644 77.4369 292.579 77.437C276.514 77.437 263.49 64.4131 263.49 48.3481C263.491 32.2832 276.514 19.2602 292.579 19.2602Z" fill="#EDDEAE"/>
<path d="M46.2479 142.179L6.13538 39.8507L10.2357 31.4999L49.7442 134.858L97.8211 110.884C112.308 121.354 120.978 110.435 123.501 103.667L193.1 98.8967L194.69 103.667L125.381 108.342C124.563 110.889 121.397 116.528 115.285 118.711C106.335 120.894 99.9131 117.802 97.8211 115.983L46.2479 142.179Z" fill="#2672FF"/>
<path d="M39.1026 16.8472C49.2776 6.48716 61.0713 2.50965 65.6964 1.8159L106.024 104.552C99.741 102.566 91.7835 105.38 88.5901 107.035L52.9776 126.46L15.7463 29.1034C19.2921 29.3347 28.9276 27.2072 39.1026 16.8472Z" fill="#2672FF"/>
<path d="M131.385 96.2077C119.081 97.6476 113.932 102.371 112.896 104.552L76.2453 1.8159C95.2251 4.97025 138.039 1.91961 157.073 0C165.974 37.1742 183.906 77.5552 191.76 93.099C176.762 93.5353 143.689 94.7679 131.385 96.2077Z" fill="#2672FF"/>
<path d="M161.854 209.998C184.766 200.451 195.268 172.209 197.654 159.282C226.294 175.034 246.979 180.96 253.741 181.955C289.063 237.803 350.002 245.798 376.057 242.815C394.673 266.681 408.873 321.972 413.647 346.634C386.916 336.133 361.936 344.645 352.787 350.214C348.014 342.577 344.434 321.972 343.24 312.624C326.056 335.536 295.507 353.595 282.381 359.761C206.485 332.075 177.567 262.703 172.594 231.478L185.124 224.318L161.854 209.998Z" fill="#2672FF"/>
<path d="M356.366 357.971C375.937 343.173 404.299 349.418 416.033 354.391C418.022 367.318 416.51 393.771 394.553 396.157C372.596 398.544 359.946 371.694 356.366 357.971Z" fill="#C9A327"/>
<path d="M166.031 233.864C180.829 312.624 242.603 352.999 271.641 363.341C225.698 387.207 142.164 399.14 68.7746 379.45C-4.61456 359.76 -2.82483 317.994 1.94847 307.851C6.72195 297.707 26.412 281.001 68.7746 292.935C102.665 302.481 135.402 306.856 147.534 307.851C125.578 271.574 150.717 243.411 166.031 233.864Z" fill="#C9A327"/>
<path d="M7.31859 204.628C12.6886 196.871 25.8153 180.165 62.8078 195.678C92.4023 208.088 128.441 234.262 142.761 245.798C127.964 263.459 129.834 288.559 132.618 298.901C-12.3709 279.808 1.94863 212.385 7.31859 204.628Z" fill="#C9A327"/>
<path fill-rule="evenodd" clip-rule="evenodd" d="M293.717 11.3086C314.807 11.3086 331.903 28.4055 331.904 49.4951C331.904 50.0688 331.888 50.6395 331.863 51.207C349.923 51.19 369.126 54.9482 387.9 62.8848C410.683 72.5165 429.492 86.8897 442.887 103.486C449.785 96.6666 459.267 92.4551 469.733 92.4551C490.822 92.4551 507.919 109.552 507.919 130.642C507.919 151.731 490.822 168.828 469.733 168.828C468.206 168.828 466.701 168.736 465.221 168.562C464.578 175.52 462.905 182.364 460.118 188.955C441.194 233.72 378.178 249.855 319.368 224.994C260.559 200.133 228.225 143.689 247.15 98.9238C251.174 89.4035 257.194 81.1787 264.742 74.3672C259.001 67.6852 255.531 58.9957 255.531 49.4951C255.531 28.4056 272.627 11.3087 293.717 11.3086ZM469.733 106.731C462.33 106.732 455.712 110.096 451.326 115.379C458.973 127.763 463.738 140.968 465.112 154.104C466.607 154.396 468.152 154.552 469.733 154.552C482.938 154.552 493.643 143.847 493.643 130.642C493.643 117.436 482.938 106.731 469.733 106.731ZM293.717 25.5849C280.512 25.5851 269.807 36.2902 269.807 49.4951C269.807 55.7926 272.244 61.5197 276.223 65.79C288.021 58.5152 302.141 53.8392 317.492 52.041C317.581 51.2044 317.627 50.3551 317.627 49.4951C317.627 36.2901 306.922 25.585 293.717 25.5849Z" fill="#C9A327"/>
<path d="M123.072 143.172C137.391 122.169 173.987 142.377 190.494 155.105C190.494 181.836 166.23 199.258 154.098 204.628C137.789 192.894 108.752 164.174 123.072 143.172Z" fill="#C9A327"/>
<path d="M291.694 232.824C291.105 235.303 287.835 240.088 286.273 242.17C290.695 242.584 293.637 246.174 294.555 247.917C289.96 246.785 285.702 246.789 284.147 246.933C286.678 249.616 293.198 263.306 279.434 276.29C268.422 286.678 254.806 280.564 249.374 276.208L245.875 279.509L246.865 280.558L245.303 283.576L243.542 281.71L236.66 288.202C255.688 286.125 265.569 293.998 268.132 298.195C264.743 296.394 256.28 293.062 249.533 294.136C242.786 295.21 235.962 292.682 233.394 291.283L218.229 305.588L220.167 296.587L229.813 287.488C228.745 286.002 226.832 280.63 227.733 271.027C228.633 261.424 226.143 254.504 224.786 252.245C234.577 258.285 234.395 276.203 233.08 284.407L239.962 277.914L238.878 276.765L240.488 273.798L242.295 275.714L245.794 272.413C248.824 274.281 262.593 281.816 274.262 270.808C285.932 259.799 282.554 250.21 278.18 245.573C273.806 240.936 264.871 236.3 252.616 247.861C242.811 257.109 246.546 268.138 249.639 272.496C246.145 273.201 231.527 257.288 247.391 242.323C260.083 230.351 272.55 235.496 277.197 239.566C278.259 237.061 277.322 231.486 276.721 229.012C280.532 231.964 281.899 236.069 282.106 237.752C283.767 236.185 289.19 233.814 291.694 232.824Z" fill="white"/>
<path d="M256.934 265.701C258.046 266.88 257.992 268.736 256.813 269.848C255.635 270.96 253.778 270.905 252.666 269.727C251.555 268.548 251.609 266.692 252.787 265.58C253.966 264.468 255.822 264.523 256.934 265.701Z" fill="white"/>
<path d="M254.41 257.121C255.521 258.299 255.467 260.156 254.289 261.268C253.11 262.379 251.254 262.325 250.142 261.147C249.03 259.968 249.084 258.111 250.263 257C251.441 255.888 253.298 255.942 254.41 257.121Z" fill="white"/>
<path d="M265.353 268.721C266.464 269.899 266.41 271.756 265.232 272.868C264.053 273.98 262.197 273.925 261.085 272.747C259.973 271.568 260.027 269.712 261.206 268.6C262.384 267.489 264.241 267.542 265.353 268.721Z" fill="white"/>
<path d="M263.111 259.874C264.222 261.053 264.168 262.91 262.99 264.021C261.811 265.133 259.954 265.079 258.843 263.9C257.731 262.722 257.786 260.865 258.964 259.754C260.143 258.642 261.999 258.696 263.111 259.874Z" fill="white"/>
<path d="M261.503 252.266C262.615 253.445 262.561 255.301 261.382 256.413C260.204 257.525 258.347 257.47 257.235 256.292C256.124 255.113 256.178 253.257 257.356 252.145C258.535 251.033 260.391 251.088 261.503 252.266Z" fill="white"/>
<path d="M270.612 261.923C271.724 263.101 271.67 264.958 270.491 266.069C269.313 267.181 267.457 267.127 266.345 265.948C265.233 264.77 265.287 262.913 266.465 261.801C267.644 260.69 269.501 260.744 270.612 261.923Z" fill="white"/>
<path d="M269.287 254.048C270.399 255.226 270.344 257.083 269.166 258.195C267.987 259.306 266.131 259.252 265.019 258.074C263.908 256.895 263.962 255.039 265.14 253.927C266.319 252.815 268.175 252.869 269.287 254.048Z" fill="white"/>
<path d="M266.763 245.468C267.874 246.646 267.82 248.502 266.642 249.614C265.463 250.726 263.607 250.672 262.495 249.494C261.383 248.315 261.437 246.458 262.616 245.346C263.794 244.235 265.651 244.289 266.763 245.468Z" fill="white"/>
<path d="M277.706 257.068C278.817 258.246 278.764 260.103 277.585 261.215C276.407 262.326 274.55 262.272 273.438 261.094C272.326 259.915 272.381 258.059 273.559 256.947C274.738 255.835 276.594 255.89 277.706 257.068Z" fill="white"/>
<path d="M275.464 248.221C276.575 249.4 276.521 251.257 275.343 252.368C274.164 253.48 272.307 253.426 271.196 252.247C270.084 251.069 270.138 249.212 271.317 248.101C272.495 246.989 274.352 247.043 275.464 248.221Z" fill="white"/>
<path d="M375.046 154.353C378.769 146.091 386.684 141.6 392.725 144.322C398.765 147.044 400.644 155.948 396.921 164.21C393.198 172.472 385.283 176.963 379.242 174.241C373.202 171.519 371.323 162.614 375.046 154.353Z" fill="#332C23"/>
<path d="M294.491 117.362C298.214 109.101 306.129 104.609 312.17 107.331C318.211 110.053 320.089 118.957 316.366 127.219C312.643 135.481 304.728 139.972 298.688 137.25C292.647 134.528 290.769 125.624 294.491 117.362Z" fill="#332C23"/>
<path fill-rule="evenodd" clip-rule="evenodd" d="M289.183 167.61C294.794 150.341 315.27 141.517 334.917 147.901C354.564 154.284 365.942 173.459 360.331 190.729C354.72 207.998 334.244 216.822 314.597 210.439C294.949 204.055 283.571 184.88 289.183 167.61ZM341.722 169.806C338.047 165.191 325.996 158.836 313.822 160.611C309.067 160.611 315.977 173.602 319.781 175.188C318.954 181.727 317.225 187.74 309.182 176.615C305.949 173.384 303.928 176.616 305.273 178.796C308.907 184.684 320.548 194.972 338.047 189.019C340.986 186.854 338.99 184.603 335.867 185.561C328.35 187.866 316.098 189.064 325.118 177.518C325.502 177.518 341.721 177.516 341.722 169.806Z" fill="#EDDEAE"/>
</svg>
