<svg width="239" height="239" viewBox="0 0 239 239" fill="none" xmlns="http://www.w3.org/2000/svg">
<path d="M232 119.05C232 181.43 181.43 231.99 119.05 231.99C56.6701 231.99 6.1001 181.43 6.1001 119.05C6.1001 56.67 56.6701 6.09998 119.05 6.09998C181.43 6.09998 231.99 56.67 231.99 119.05H232Z" fill="url(#paint0_radial_111_12)"/>
<g filter="url(#filter0_d_111_12)">
<path d="M119.05 168.522C129.08 168.522 137.211 176.652 137.211 186.682C137.211 196.712 129.08 204.842 119.05 204.842C109.021 204.842 100.89 196.712 100.89 186.682C100.89 176.652 109.021 168.522 119.05 168.522Z" fill="url(#paint1_linear_111_12)"/>
<path d="M120.909 33.2476C168.955 33.2476 169.528 71.8561 169.528 84.1539C169.528 96.4515 157.428 115.46 143.789 123.335C132.877 129.635 129.899 145.598 129.775 152.792H104.894C104.894 135.061 115.761 113.039 129.775 105.031C140.986 98.6251 143.789 88.4438 143.789 84.1539C144.646 74.6208 141.272 55.5548 120.909 55.5548C100.546 55.5548 95.0745 70.8079 94.8838 78.4343H68.5725C68.5725 72.7145 72.8625 33.2476 120.909 33.2476Z" fill="url(#paint2_linear_111_12)"/>
<path d="M135.21 186.682C135.21 177.757 127.975 170.522 119.05 170.522C110.125 170.522 102.89 177.757 102.89 186.682C102.89 195.607 110.125 202.842 119.05 202.842V204.842C109.177 204.842 101.144 196.964 100.896 187.151L100.89 186.682C100.89 176.653 109.02 168.522 119.05 168.522L119.519 168.528C129.332 168.777 137.21 176.809 137.21 186.682L137.204 187.151C136.956 196.964 128.923 204.842 119.05 204.842V202.842C127.975 202.842 135.21 195.607 135.21 186.682ZM167.528 84.1538C167.528 78.0057 167.361 65.7497 161.483 55.0523C158.566 49.7447 154.243 44.8244 147.798 41.2173C141.344 37.6051 132.652 35.2476 120.909 35.2476C97.5424 35.2476 85.0868 44.7908 78.386 54.8081C72.7477 63.237 71.0888 72.1582 70.6868 76.4341H93.0266C93.4958 72.4216 95.1445 67.2748 98.7903 62.8609C103.127 57.6111 110.163 53.5552 120.909 53.5552C131.866 53.5553 138.447 58.7602 142.058 65.315C145.57 71.6914 146.226 79.2289 145.785 84.2613C145.741 89.2251 142.592 100.011 130.767 106.768C124.21 110.515 118.221 117.663 113.859 126.177C109.845 134.013 107.312 142.811 106.943 150.793H127.867C128.135 147.055 129.001 142.005 130.864 137.027C133.07 131.13 136.769 125.078 142.788 121.603C149.266 117.863 155.488 111.399 160.096 104.313C164.727 97.1907 167.528 89.751 167.528 84.1538ZM169.528 84.1538C169.528 96.4515 157.428 115.461 143.788 123.336L143.283 123.637C133.118 129.925 130.089 144.73 129.795 152.092L129.775 152.793H104.894C104.894 135.338 115.424 113.726 129.12 105.417L129.775 105.032C140.986 98.6256 143.788 88.4437 143.788 84.1538C144.633 74.7696 141.376 56.1483 121.851 55.5689L120.909 55.5552C101.183 55.5552 95.4308 69.8696 94.9172 77.6978L94.884 78.4341H68.5725C68.5726 72.7134 72.8636 33.2476 120.909 33.2476L122.027 33.2544C168.964 33.8491 169.528 71.952 169.528 84.1538Z" fill="#DEDEDE"/>
</g>
<path d="M156.13 228.32C75.49 165.44 84.37 55.76 98.89 8.77002C23.72 17.66 5.50002 91.07 5.78002 126.66C20.81 231.91 112.28 238.28 156.13 228.32Z" fill="white" fill-opacity="0.22"/>
<path d="M227 119.05C227 59.43 178.65 11.1 119.04 11.1C59.4301 11.1 11.1001 59.43 11.1001 119.05C11.1001 178.66 59.4301 226.99 119.05 226.99C178.66 226.99 226.99 178.66 226.99 119.05H227ZM237 119.05C237 184.19 184.19 236.99 119.05 236.99C53.9101 236.99 1.1001 184.2 1.1001 119.05C1.1001 53.9 53.9001 1.09998 119.05 1.09998C184.19 1.09998 236.99 53.9 236.99 119.05H237Z" fill="url(#paint3_linear_111_12)" stroke="#D7D7D7" stroke-width="2.2"/>
<defs>
<filter id="filter0_d_111_12" x="68.5725" y="29.1476" width="109.055" height="177.795" filterUnits="userSpaceOnUse" color-interpolation-filters="sRGB">
<feFlood flood-opacity="0" result="BackgroundImageFix"/>
<feColorMatrix in="SourceAlpha" type="matrix" values="0 0 0 0 0 0 0 0 0 0 0 0 0 0 0 0 0 0 127 0" result="hardAlpha"/>
<feOffset dx="5" dy="-1"/>
<feGaussianBlur stdDeviation="1.55"/>
<feComposite in2="hardAlpha" operator="out"/>
<feColorMatrix type="matrix" values="0 0 0 0 0 0 0 0 0 0 0 0 0 0 0 0 0 0 0.25 0"/>
<feBlend mode="normal" in2="BackgroundImageFix" result="effect1_dropShadow_111_12"/>
<feBlend mode="normal" in="SourceGraphic" in2="effect1_dropShadow_111_12" result="shape"/>
</filter>
<radialGradient id="paint0_radial_111_12" cx="0" cy="0" r="1" gradientUnits="userSpaceOnUse" gradientTransform="translate(197.557 45.5956) rotate(123) scale(306 306)">
<stop stop-color="#9AB7FF"/>
<stop offset="0.48" stop-color="#0036AA"/>
<stop offset="1" stop-color="#B4C9FF"/>
</radialGradient>
<linearGradient id="paint1_linear_111_12" x1="96.3306" y1="60.4822" x2="182.427" y2="135.582" gradientUnits="userSpaceOnUse">
<stop stop-color="#E4E4E4"/>
<stop offset="0.57" stop-color="#838383"/>
<stop offset="1" stop-color="white"/>
</linearGradient>
<linearGradient id="paint2_linear_111_12" x1="96.3306" y1="60.4822" x2="182.427" y2="135.582" gradientUnits="userSpaceOnUse">
<stop stop-color="#E4E4E4"/>
<stop offset="0.57" stop-color="#838383"/>
<stop offset="1" stop-color="white"/>
</linearGradient>
<linearGradient id="paint3_linear_111_12" x1="210.8" y1="6.09998" x2="18.5901" y2="237.72" gradientUnits="userSpaceOnUse">
<stop stop-color="white"/>
<stop offset="0.49" stop-color="#898989"/>
<stop offset="1" stop-color="white"/>
</linearGradient>
</defs>
</svg>
